<?xml version="1.0" encoding="UTF-8"?>
<!DOCTYPE svg PUBLIC "-//W3C//DTD SVG 1.1//EN" "http://www.w3.org/Graphics/SVG/1.1/DTD/svg11.dtd">
<!-- Creator: CorelDRAW X5 -->
<svg xmlns="http://www.w3.org/2000/svg" xml:space="preserve" width="26.2466mm" height="31.4476mm" style="shape-rendering:geometricPrecision; text-rendering:geometricPrecision; image-rendering:optimizeQuality; fill-rule:evenodd; clip-rule:evenodd"
viewBox="0 0 2625 3145"
 xmlns:xlink="http://www.w3.org/1999/xlink"
 xmlns:svg="http://www.w3.org/2000/svg">
 <defs>
  <style type="text/css">
   <![CDATA[
    .fil4 {fill:none}
    .fil0 {fill:black}
    .fil2 {fill:#E5222A}
    .fil5 {fill:#FCCF00}
    .fil3 {fill:#EEEEEF;fill-rule:nonzero}
    .fil1 {fill:black;fill-rule:nonzero}
   ]]>
  </style>
   <clipPath id="id0">
    <path d="M118 3100l0 -24 56 0 0 50c-11,7 -20,12 -28,15 -8,3 -18,4 -29,4 -14,0 -25,-2 -34,-7 -9,-5 -16,-12 -20,-21 -5,-9 -7,-20 -7,-32 0,-13 3,-24 8,-33 5,-9 13,-17 23,-22 8,-4 19,-6 32,-6 13,0 23,1 29,4 6,2 12,6 16,11 4,5 7,11 10,19l-35 6c-1,-4 -4,-8 -7,-10 -3,-2 -8,-4 -13,-4 -8,0 -14,3 -19,8 -5,6 -7,14 -7,26 0,13 2,22 7,27 5,5 11,8 20,8 4,0 8,-1 12,-2 4,-1 8,-3 13,-6l0 -11 -24 0zm77 -75l97 0 0 25 -61 0 0 19 56 0 0 24 -56 0 0 23 62 0 0 27 -99 0 0 -117zm119 117l0 -117 60 0c11,0 20,1 26,3 6,2 11,5 14,11 4,5 5,12 5,19 0,7 -1,12 -4,17 -3,5 -7,9 -11,11 -3,2 -7,3 -13,5 4,1 7,3 9,4 1,1 3,3 6,6 3,3 4,6 5,7l17 34 -41 0 -19 -36c-2,-5 -5,-8 -7,-9 -3,-2 -6,-3 -9,-3l-3 0 0 47 -36 0zm36 -70l15 0c2,0 5,-1 10,-2 2,0 4,-2 6,-4 2,-2 2,-4 2,-7 0,-4 -1,-7 -4,-9 -2,-2 -7,-3 -13,-3l-16 0 0 24zm162 50l-41 0 -6 19 -37 0 44 -117 39 0 44 117 -38 0 -6 -19zm-8 -25l-13 -42 -13 42 26 0zm63 -72l36 0 0 44 38 -44 48 0 -43 44 45 73 -45 0 -25 -48 -19 20 0 29 -36 0 0 -117zm208 98l-41 0 -6 19 -37 0 44 -117 39 0 44 117 -38 0 -6 -19zm-8 -25l-13 -42 -13 42 26 0zm63 -72l34 0 44 65 0 -65 34 0 0 117 -34 0 -44 -64 0 64 -34 0 0 -117zm192 0l36 0 0 117 -36 0 0 -117zm62 0l34 0 44 65 0 -65 34 0 0 117 -34 0 -44 -64 0 64 -34 0 0 -117zm136 0l54 0c11,0 19,1 26,4 7,3 12,7 16,12 4,5 7,12 9,19 2,7 3,15 3,23 0,13 -1,22 -4,29 -3,7 -7,13 -12,17 -5,5 -10,8 -16,9 -8,2 -15,3 -22,3l-54 0 0 -117zm36 27l0 64 9 0c8,0 13,-1 16,-3 3,-2 6,-5 8,-9 2,-4 3,-11 3,-20 0,-12 -2,-21 -6,-25 -4,-5 -11,-7 -20,-7l-9 0zm86 32c0,-19 5,-34 16,-45 11,-11 25,-16 44,-16 19,0 35,5 45,16 11,10 16,25 16,44 0,14 -2,25 -7,34 -5,9 -11,16 -20,20 -9,5 -20,7 -33,7 -13,0 -24,-2 -33,-6 -9,-4 -16,-11 -21,-20 -5,-9 -8,-20 -8,-34zm36 0c0,12 2,20 7,25 4,5 10,8 18,8 8,0 14,-3 18,-8 4,-5 6,-14 6,-27 0,-11 -2,-19 -7,-24 -4,-5 -10,-8 -18,-8 -7,0 -13,3 -18,8 -4,5 -7,14 -7,26zm105 -59l34 0 44 65 0 -65 34 0 0 117 -34 0 -44 -64 0 64 -34 0 0 -117zm136 0l97 0 0 25 -61 0 0 19 56 0 0 24 -56 0 0 23 62 0 0 27 -99 0 0 -117zm112 78l34 -2c1,6 2,10 5,13 4,5 9,7 16,7 5,0 9,-1 12,-4 3,-2 4,-5 4,-8 0,-3 -1,-6 -4,-8 -3,-2 -9,-5 -19,-7 -16,-4 -27,-8 -34,-14 -7,-6 -10,-13 -10,-23 0,-6 2,-12 5,-17 3,-5 9,-10 16,-13 7,-3 17,-5 29,-5 15,0 26,3 34,8 8,6 13,14 14,27l-34 2c-1,-5 -3,-9 -6,-12 -3,-2 -7,-4 -12,-4 -4,0 -7,1 -10,3 -2,2 -3,4 -3,7 0,2 1,4 3,5 2,2 6,3 12,4 16,3 27,7 34,10 7,3 12,8 15,13 3,5 5,11 5,17 0,7 -2,14 -6,21 -4,6 -10,11 -17,14 -7,3 -17,5 -28,5 -20,0 -34,-4 -41,-12 -8,-8 -12,-17 -13,-29zm126 -78l36 0 0 117 -36 0 0 -117zm134 98l-41 0 -6 19 -37 0 44 -117 39 0 44 117 -38 0 -6 -19zm-8 -25l-13 -42 -13 42 26 0zm118 45l0 -117 60 0c11,0 20,1 26,3 6,2 11,5 14,11 4,5 5,12 5,19 0,7 -1,12 -4,17 -3,5 -7,9 -11,11 -3,2 -7,3 -13,5 4,1 7,3 9,4 1,1 3,3 6,6 3,3 4,6 5,7l18 34 -41 0 -19 -36c-2,-5 -5,-8 -7,-9 -3,-2 -6,-3 -9,-3l-3 0 0 47 -36 0zm36 -70l15 0c2,0 5,-1 10,-2 2,0 4,-2 6,-4 2,-2 2,-4 2,-7 0,-4 -1,-7 -4,-9 -2,-2 -7,-3 -13,-3l-16 0 0 24zm162 50l-41 0 -6 19 -37 0 44 -117 39 0 44 117 -38 0 -6 -19zm-8 -25l-13 -42 -13 42 26 0zm37 -72l40 0 24 40 24 -40 40 0 -46 68 0 49 -36 0 0 -49 -46 -68zm196 98l-41 0 -6 19 -37 0 44 -117 39 0 44 117 -38 0 -6 -19zm-8 -25l-13 -42 -13 42 26 0z"/>
   </clipPath>
   <clipPath id="id1">
    <path d="M208 2852l0 -65 149 0 0 133c-28,19 -54,33 -76,40 -22,7 -48,11 -78,11 -37,0 -67,-6 -90,-19 -23,-13 -41,-31 -54,-56 -13,-25 -19,-54 -19,-86 0,-34 7,-64 21,-89 14,-25 35,-44 62,-57 21,-10 50,-15 85,-15 34,0 60,3 77,9 17,6 31,16 43,29 11,13 20,30 25,50l-93 17c-4,-12 -10,-21 -20,-27 -9,-6 -21,-9 -35,-9 -21,0 -38,7 -51,22 -13,15 -19,38 -19,70 0,34 6,58 19,72 13,14 30,22 53,22 11,0 21,-2 31,-5 10,-3 21,-8 34,-16l0 -29 -64 0zm206 -199l258 0 0 67 -162 0 0 50 150 0 0 64 -150 0 0 61 166 0 0 71 -263 0 0 -312zm316 312l0 -312 161 0c30,0 53,3 68,8 16,5 28,15 38,28 10,14 14,31 14,50 0,17 -4,32 -11,45 -7,13 -18,23 -30,31 -8,5 -20,9 -34,12 11,4 20,8 25,12 3,3 9,8 15,16 7,8 11,15 14,19l47 90 -109 0 -51 -95c-7,-12 -12,-20 -17,-24 -7,-5 -15,-7 -24,-7l-9 0 0 127 -97 0zm97 -186l41 0c4,0 13,-1 25,-4 6,-1 12,-5 16,-10 4,-5 6,-11 6,-18 0,-10 -3,-18 -10,-23 -6,-5 -18,-8 -36,-8l-42 0 0 63zm245 -126l97 0 0 312 -97 0 0 -312zm166 0l90 0 117 173 0 -173 91 0 0 312 -91 0 -117 -171 0 171 -91 0 0 -312zm364 0l143 0c28,0 51,4 68,11 17,8 32,19 43,33 11,14 20,31 25,50 5,19 8,39 8,60 0,33 -4,59 -11,78 -8,18 -18,34 -32,46 -13,12 -28,21 -43,25 -21,6 -40,8 -57,8l-143 0 0 -312zm96 71l0 170 24 0c20,0 34,-2 43,-7 9,-4 15,-12 20,-23 5,-11 7,-29 7,-54 0,-33 -5,-56 -16,-68 -11,-12 -29,-18 -54,-18l-24 0zm243 241l0 -312 161 0c30,0 53,3 68,8 16,5 28,15 38,28 10,14 14,31 14,50 0,17 -4,32 -11,45 -7,13 -18,23 -30,31 -8,5 -20,9 -34,12 11,4 20,8 25,12 3,3 9,8 15,16 7,8 11,15 14,19l47 90 -109 0 -51 -95c-7,-12 -12,-20 -18,-24 -7,-5 -15,-7 -24,-7l-8 0 0 127 -97 0zm97 -186l41 0c4,0 13,-1 26,-4 6,-1 12,-5 16,-10 4,-5 6,-11 6,-18 0,-10 -3,-18 -10,-23 -6,-5 -18,-8 -36,-8l-42 0 0 63zm433 134l-110 0 -15 51 -98 0 117 -312 105 0 117 312 -101 0 -15 -51zm-20 -67l-34 -112 -34 112 69 0z"/>
   </clipPath>
 </defs>
 <g id="Layer_x0020_1">
  <metadata id="CorelCorpID_0Corel-Layer"/>
  <path class="fil0" d="M1343 10l630 458 630 459c18,13 25,37 19,57l0 0 -241 742 -241 742c-7,22 -27,36 -49,36l0 0 -779 0 -779 0c-24,0 -45,-17 -50,-40l-240 -739 -241 -742c-7,-23 2,-47 21,-59l628 -457 630 -459c19,-14 44,-13 61,1z"/>
  <path class="fil1" d="M200 2852l0 0 0 -65c0,-4 3,-7 7,-7l0 0 149 0c4,0 7,3 7,7l0 0 0 133c0,3 -1,5 -4,6 -14,10 -28,18 -41,25 -13,7 -25,12 -37,16l0 0c-11,4 -24,6 -37,8 -13,2 -28,3 -43,3 -19,0 -36,-2 -52,-5 -16,-3 -30,-8 -42,-15l0 0c-12,-7 -23,-15 -33,-25 -10,-10 -18,-21 -24,-35l0 0c-7,-13 -12,-27 -15,-42 -3,-15 -5,-31 -5,-47 0,-18 2,-34 5,-49l0 0 0 0c4,-15 9,-30 17,-43l0 0 0 0c7,-13 17,-25 27,-35 11,-10 23,-19 38,-25l0 0c11,-5 24,-9 39,-12 15,-3 31,-4 49,-4 17,0 33,1 46,2 13,2 25,4 34,7l0 0 0 0c9,3 17,8 25,13 8,5 14,11 21,18l0 0 0 0c6,7 11,15 16,24 4,9 8,18 11,29 1,4 -1,8 -5,9l-1 0 0 0 -93 17c-4,1 -7,-2 -9,-5 -2,-5 -4,-9 -7,-13l0 0c-3,-4 -6,-7 -10,-10l0 0c-4,-3 -8,-4 -13,-6 -5,-1 -11,-2 -17,-2 -19,0 -34,6 -45,19 -6,6 -10,15 -13,26 -3,11 -4,24 -4,39 0,16 2,30 5,41 3,11 7,20 13,26l0 0c5,6 12,11 20,14 8,3 17,5 28,5 5,0 10,0 15,-1 5,-1 9,-2 14,-3l0 0c4,-1 9,-3 15,-6 4,-2 9,-4 13,-7l0 -18 -57 0c-4,0 -7,-3 -7,-7zm213 -206l0 0 258 0c4,0 7,3 7,7l0 0 0 66c0,4 -3,7 -7,7l0 0 -154 0 0 35 142 0c4,0 7,3 7,7l0 0 0 63c0,4 -3,7 -7,7l0 0 -142 0 0 46 159 0c4,0 7,3 7,7l0 0 0 70c0,4 -3,7 -7,7l0 0 -263 0c-4,0 -7,-3 -7,-7l0 0 0 -312c0,-4 3,-7 7,-7zm309 319l0 0 0 -312c0,-4 3,-7 7,-7l0 0 160 0c15,0 28,1 40,2 12,1 22,3 30,6l0 0c9,3 16,7 23,12 7,5 13,12 18,19l0 0c5,7 9,16 12,25 3,9 4,19 4,30 0,9 -1,18 -3,26 -2,8 -5,16 -9,23l0 0c-4,7 -9,13 -14,18 -6,6 -12,10 -19,15l0 0c-5,3 -10,5 -16,7 5,3 10,7 15,11 10,8 18,19 24,32l47 90c2,4 0,8 -3,10 -1,1 -2,1 -3,1l0 0 -109 0c-3,0 -6,-2 -7,-4l-51 -95 0 0c-3,-6 -6,-10 -9,-14 -2,-3 -5,-6 -6,-7l0 0c-3,-2 -6,-3 -9,-4 -3,-1 -7,-1 -10,-1l-1 0 0 119c0,4 -3,7 -7,7l0 0 -97 0c-4,0 -7,-3 -7,-7zm112 -193l33 0c2,0 5,0 9,-1 4,-1 9,-2 15,-3l0 0c2,0 4,-1 6,-2 2,-1 4,-3 5,-5l0 0c1,-2 2,-4 3,-6l0 0 0 0c1,-2 1,-5 1,-7 0,-4 -1,-8 -2,-11 -1,-3 -3,-5 -5,-7l0 0c-2,-2 -6,-3 -11,-4 -5,-1 -12,-2 -21,-2l-35 0 0 48zm237 -126l0 0 96 0c4,0 7,3 7,7l0 0 0 312c0,4 -3,7 -7,7l0 0 -96 0c-4,0 -7,-3 -7,-7l0 0 0 -312c0,-4 3,-7 7,-7zm166 0l0 0 90 0c3,0 5,1 6,4l103 152 0 -148c0,-4 3,-7 7,-7l0 0 91 0c4,0 7,3 7,7l0 0 0 312c0,4 -3,7 -7,7l0 0 -91 0c-3,0 -5,-1 -6,-4l-103 -151 0 147c0,4 -3,7 -7,7l0 0 -90 0c-4,0 -7,-3 -7,-7l0 0 0 -312c0,-4 3,-7 7,-7zm364 0l0 0 143 0c14,0 28,1 39,3 12,2 23,5 32,9l0 0 0 0c9,4 18,9 25,15 8,6 14,13 21,20l0 0 0 0c6,8 11,16 15,25 4,9 8,18 11,28 3,10 5,20 6,30l0 0c1,11 2,21 2,32 0,17 -1,32 -3,45 -2,14 -5,25 -9,35l0 0c-4,10 -9,18 -14,26 -6,8 -12,15 -19,22l0 0c-7,7 -14,12 -22,16 -8,4 -16,8 -24,10 -11,3 -21,5 -31,7 -10,1 -19,2 -28,2l-143 0c-4,0 -7,-3 -7,-7l0 0 0 -312c0,-4 3,-7 7,-7zm104 86l0 155 16 0c10,0 18,-1 25,-2 6,-1 11,-2 15,-4l0 0 0 0c3,-2 6,-4 9,-7 3,-3 5,-7 8,-12l0 0c2,-5 4,-12 5,-20 1,-9 2,-19 2,-31 0,-16 -1,-29 -4,-40 -2,-10 -6,-18 -10,-23l0 0c-4,-5 -10,-9 -18,-11 -8,-3 -18,-4 -30,-4l-17 0zm228 234l0 0 0 -312c0,-4 3,-7 8,-7l0 0 160 0c15,0 28,1 40,2 12,1 22,3 30,6l0 0c9,3 16,7 23,12 7,5 13,12 18,19l0 0c5,7 9,16 12,25 3,9 4,19 4,30 0,9 -1,18 -3,26 -2,8 -5,16 -9,23l0 0c-4,7 -9,13 -14,18 -6,6 -12,10 -19,15l0 0c-4,3 -9,5 -15,7 3,1 5,3 7,4l0 0c2,2 5,4 7,7 3,3 6,6 9,11 3,4 6,8 9,12 2,3 4,6 6,9l0 0 39 75 111 -295c1,-3 4,-5 7,-5l0 0 105 0c3,0 6,2 7,5l117 311c1,4 -1,8 -4,10 -1,0 -2,0 -3,0l0 0 -101 0c-4,0 -7,-2 -7,-6l-14 -46 -99 0 -14 46c-1,3 -4,5 -7,5l0 0 -98 0 -1 0 0 0 -108 0c-3,0 -6,-2 -7,-4l-51 -95 0 0c-3,-6 -6,-10 -9,-14 -2,-3 -5,-6 -6,-7l0 0c-3,-2 -6,-3 -9,-4 -3,-1 -7,-1 -10,-1l-1 0 0 119c0,4 -3,7 -7,7l0 0 -97 0c-4,0 -8,-3 -8,-7zm112 -193l33 0c2,0 5,0 9,-1 4,-1 9,-2 15,-3l0 0c2,0 4,-1 6,-2 2,-1 4,-3 5,-5l0 0c1,-2 2,-4 3,-6l0 0 0 0c1,-2 1,-5 1,-7 0,-4 -1,-8 -2,-11 -1,-3 -3,-5 -5,-7l0 0 0 0c-2,-2 -6,-3 -11,-5 -5,-1 -12,-2 -21,-2l-35 0 0 48zm395 67l-24 -79 -24 79 49 0z"/>
 </g>
 <g id="svg2">
  <metadata id="CorelCorpID_1Corel-Layer"/>
  <polygon class="fil2" points="1312,51 1943,510 2573,969 2332,1712 2092,2454 1312,2454 533,2454 292,1712 51,969 682,510 "/>
  <path class="fil0" d="M1937 2195c13,40 46,73 101,96l33 15 -36 7c-48,10 -91,14 -128,13 -42,-1 -79,-8 -110,-19 -28,-10 -49,-26 -63,-51 -8,-16 -13,-35 -15,-57 -1,3 -2,7 -4,10 -9,23 -24,43 -44,60 -12,10 -24,18 -36,23 -12,6 -24,8 -36,8l-3 0 -2 -1c-10,-4 -19,-9 -28,-13 -9,-4 -16,-8 -22,-11 -16,-8 -26,-24 -31,-47 -2,-8 -3,-16 -3,-26 0,3 -1,5 -2,8 -6,24 -17,45 -34,61 -9,8 -19,15 -30,20 -11,5 -24,9 -39,11l-3 0 -3 -1c-19,-8 -34,-18 -47,-27 -3,-2 -6,-4 -9,-6 -15,-10 -26,-25 -32,-47 -1,-3 -2,-6 -2,-10l0 1c-4,26 -15,46 -32,60 -13,10 -30,20 -52,33l-1 0 -6 3 -6 -3c-10,-6 -20,-11 -30,-16 -10,-5 -20,-10 -29,-14 -17,-7 -30,-22 -39,-44 -4,-10 -8,-22 -10,-36 1,7 1,14 1,20 0,23 -7,42 -20,55 -6,7 -14,13 -23,19 -9,6 -19,11 -30,15l-3 1 -3 -1c-24,-6 -45,-18 -68,-32l-9 -5 0 0c-13,-8 -24,-21 -34,-43 -3,-6 -6,-13 -8,-21 -1,22 -6,41 -14,57 -15,30 -41,50 -79,59 -24,6 -54,8 -89,8 -34,0 -73,-3 -117,-8l-41 -4 37 -18c33,-16 58,-34 73,-56 9,-13 15,-27 19,-42 -19,-2 -39,-4 -60,-7l-51 -7 49 -16c36,-12 63,-29 79,-53 12,-18 19,-39 21,-64 -16,-2 -32,-5 -49,-8l-34 -6 31 -16c41,-21 71,-44 89,-69 11,-15 17,-31 19,-49 -26,-3 -54,-6 -84,-11l-80 -14 75 -31c41,-17 75,-40 103,-68 29,-28 53,-62 75,-99 25,-42 45,-78 58,-109 12,-28 17,-52 13,-73l0 0 0 -2 0 0c-6,-27 -20,-48 -43,-60l0 0c-25,-13 -59,-17 -104,-8 -1,0 -4,1 -6,1 -110,23 -198,28 -265,9 -71,-20 -118,-65 -142,-139l-15 -47 46 19c56,23 110,38 161,44 51,6 99,3 144,-11 17,-5 34,-11 50,-17 -23,4 -47,7 -74,10 -50,5 -90,5 -120,-2 -33,-7 -55,-22 -66,-45l-51 -111 77 95c9,11 18,19 26,22 6,2 12,3 17,0 30,-16 58,-28 86,-33 11,-2 22,-3 33,-3 -19,-8 -39,-18 -62,-30 -68,-37 -129,-57 -183,-61 -53,-4 -100,8 -141,35l-65 43 31 -72c28,-64 70,-113 127,-147 51,-31 114,-49 188,-54 1,-13 -1,-27 -3,-40l0 0c-4,-20 -12,-40 -23,-61l-21 -39 44 4c23,2 47,10 70,22 -4,-23 -12,-44 -22,-63l-21 -39 44 4c15,1 29,5 42,12 13,6 25,15 37,25 2,2 3,3 5,5 0,-8 -1,-15 -2,-23 -3,-19 -7,-35 -15,-49l-20 -41 45 7c15,2 29,8 43,17l0 0c12,8 24,20 35,34 3,3 5,6 8,10l0 -2c2,-15 2,-32 0,-50l-3 -33 32 9c13,4 25,10 36,19 10,9 20,20 28,33 2,3 3,5 5,8l1 -2c3,-13 4,-27 3,-42l-1 -29 28 5c19,3 35,13 49,28 10,10 18,24 26,40 60,2 113,8 160,18 54,11 100,28 138,48 33,18 70,30 109,38 40,8 83,12 128,12 57,0 118,-3 182,-11 61,-7 126,-19 193,-35l65 -15 -41 52c-31,39 -71,74 -119,103 -27,16 -57,31 -90,44 44,9 80,15 108,18l60 5 -48 37c-37,29 -82,53 -135,72l3 1c23,9 49,17 77,26l57 18 -54 26c-21,10 -43,19 -65,26 -14,5 -28,9 -43,13 21,52 38,103 51,154 15,59 25,118 30,176 2,19 2,45 1,76 0,26 0,56 1,90 1,35 9,64 23,85 14,22 35,37 61,46l69 23 -70 21c-31,9 -61,16 -92,21 7,18 16,34 30,49 23,27 57,49 100,68l33 14 -35 8c-20,5 -40,9 -60,12 5,21 14,40 27,56 20,26 48,45 86,59l39 14 -41 8c-19,4 -37,7 -54,9z"/>
  <path class="fil0" d="M118 3100l0 -24 56 0 0 50c-11,7 -20,12 -28,15 -8,3 -18,4 -29,4 -14,0 -25,-2 -34,-7 -9,-5 -16,-12 -20,-21 -5,-9 -7,-20 -7,-32 0,-13 3,-24 8,-33 5,-9 13,-17 23,-22 8,-4 19,-6 32,-6 13,0 23,1 29,4 6,2 12,6 16,11 4,5 7,11 10,19l-35 6c-1,-4 -4,-8 -7,-10 -3,-2 -8,-4 -13,-4 -8,0 -14,3 -19,8 -5,6 -7,14 -7,26 0,13 2,22 7,27 5,5 11,8 20,8 4,0 8,-1 12,-2 4,-1 8,-3 13,-6l0 -11 -24 0zm77 -75l97 0 0 25 -61 0 0 19 56 0 0 24 -56 0 0 23 62 0 0 27 -99 0 0 -117zm119 117l0 -117 60 0c11,0 20,1 26,3 6,2 11,5 14,11 4,5 5,12 5,19 0,7 -1,12 -4,17 -3,5 -7,9 -11,11 -3,2 -7,3 -13,5 4,1 7,3 9,4 1,1 3,3 6,6 3,3 4,6 5,7l17 34 -41 0 -19 -36c-2,-5 -5,-8 -7,-9 -3,-2 -6,-3 -9,-3l-3 0 0 47 -36 0zm36 -70l15 0c2,0 5,-1 10,-2 2,0 4,-2 6,-4 2,-2 2,-4 2,-7 0,-4 -1,-7 -4,-9 -2,-2 -7,-3 -13,-3l-16 0 0 24zm162 50l-41 0 -6 19 -37 0 44 -117 39 0 44 117 -38 0 -6 -19zm-8 -25l-13 -42 -13 42 26 0zm63 -72l36 0 0 44 38 -44 48 0 -43 44 45 73 -45 0 -25 -48 -19 20 0 29 -36 0 0 -117zm208 98l-41 0 -6 19 -37 0 44 -117 39 0 44 117 -38 0 -6 -19zm-8 -25l-13 -42 -13 42 26 0zm63 -72l34 0 44 65 0 -65 34 0 0 117 -34 0 -44 -64 0 64 -34 0 0 -117zm192 0l36 0 0 117 -36 0 0 -117zm62 0l34 0 44 65 0 -65 34 0 0 117 -34 0 -44 -64 0 64 -34 0 0 -117zm136 0l54 0c11,0 19,1 26,4 7,3 12,7 16,12 4,5 7,12 9,19 2,7 3,15 3,23 0,13 -1,22 -4,29 -3,7 -7,13 -12,17 -5,5 -10,8 -16,9 -8,2 -15,3 -22,3l-54 0 0 -117zm36 27l0 64 9 0c8,0 13,-1 16,-3 3,-2 6,-5 8,-9 2,-4 3,-11 3,-20 0,-12 -2,-21 -6,-25 -4,-5 -11,-7 -20,-7l-9 0zm86 32c0,-19 5,-34 16,-45 11,-11 25,-16 44,-16 19,0 35,5 45,16 11,10 16,25 16,44 0,14 -2,25 -7,34 -5,9 -11,16 -20,20 -9,5 -20,7 -33,7 -13,0 -24,-2 -33,-6 -9,-4 -16,-11 -21,-20 -5,-9 -8,-20 -8,-34zm36 0c0,12 2,20 7,25 4,5 10,8 18,8 8,0 14,-3 18,-8 4,-5 6,-14 6,-27 0,-11 -2,-19 -7,-24 -4,-5 -10,-8 -18,-8 -7,0 -13,3 -18,8 -4,5 -7,14 -7,26zm105 -59l34 0 44 65 0 -65 34 0 0 117 -34 0 -44 -64 0 64 -34 0 0 -117zm136 0l97 0 0 25 -61 0 0 19 56 0 0 24 -56 0 0 23 62 0 0 27 -99 0 0 -117zm112 78l34 -2c1,6 2,10 5,13 4,5 9,7 16,7 5,0 9,-1 12,-4 3,-2 4,-5 4,-8 0,-3 -1,-6 -4,-8 -3,-2 -9,-5 -19,-7 -16,-4 -27,-8 -34,-14 -7,-6 -10,-13 -10,-23 0,-6 2,-12 5,-17 3,-5 9,-10 16,-13 7,-3 17,-5 29,-5 15,0 26,3 34,8 8,6 13,14 14,27l-34 2c-1,-5 -3,-9 -6,-12 -3,-2 -7,-4 -12,-4 -4,0 -7,1 -10,3 -2,2 -3,4 -3,7 0,2 1,4 3,5 2,2 6,3 12,4 16,3 27,7 34,10 7,3 12,8 15,13 3,5 5,11 5,17 0,7 -2,14 -6,21 -4,6 -10,11 -17,14 -7,3 -17,5 -28,5 -20,0 -34,-4 -41,-12 -8,-8 -12,-17 -13,-29zm126 -78l36 0 0 117 -36 0 0 -117zm134 98l-41 0 -6 19 -37 0 44 -117 39 0 44 117 -38 0 -6 -19zm-8 -25l-13 -42 -13 42 26 0zm118 45l0 -117 60 0c11,0 20,1 26,3 6,2 11,5 14,11 4,5 5,12 5,19 0,7 -1,12 -4,17 -3,5 -7,9 -11,11 -3,2 -7,3 -13,5 4,1 7,3 9,4 1,1 3,3 6,6 3,3 4,6 5,7l18 34 -41 0 -19 -36c-2,-5 -5,-8 -7,-9 -3,-2 -6,-3 -9,-3l-3 0 0 47 -36 0zm36 -70l15 0c2,0 5,-1 10,-2 2,0 4,-2 6,-4 2,-2 2,-4 2,-7 0,-4 -1,-7 -4,-9 -2,-2 -7,-3 -13,-3l-16 0 0 24zm162 50l-41 0 -6 19 -37 0 44 -117 39 0 44 117 -38 0 -6 -19zm-8 -25l-13 -42 -13 42 26 0zm37 -72l40 0 24 40 24 -40 40 0 -46 68 0 49 -36 0 0 -49 -46 -68zm196 98l-41 0 -6 19 -37 0 44 -117 39 0 44 117 -38 0 -6 -19zm-8 -25l-13 -42 -13 42 26 0z"/>
  <g style="clip-path:url(#id0)">
   <g id="_310791792">
    <path id="1" class="fil3" d="M-1127 4947l0 70c12,-14 26,-21 42,-21 8,0 16,2 23,5 7,3 12,7 15,12 3,5 6,10 7,16 1,6 2,15 2,27l0 80 -36 0 0 -72c0,-14 -1,-23 -2,-27 -1,-4 -4,-7 -7,-9 -3,-2 -8,-3 -13,-3 -6,0 -11,1 -16,4 -5,3 -8,7 -10,13 -2,6 -3,15 -3,26l0 69 -36 0 0 -189 36 0zm188 52l0 29 -25 0 0 55c0,11 0,18 1,20 0,2 2,3 3,5 2,1 4,2 6,2 3,0 8,-1 15,-3l3 28c-8,4 -18,5 -29,5 -7,0 -12,-1 -18,-3 -5,-2 -9,-5 -12,-9 -2,-3 -4,-8 -5,-14 -1,-4 -1,-13 -1,-26l0 -60 -17 0 0 -29 17 0 0 -27 36 -21 0 48 25 0zm88 0l0 29 -25 0 0 55c0,11 0,18 1,20 0,2 2,3 3,5 2,1 4,2 6,2 3,0 8,-1 15,-3l3 28c-8,4 -18,5 -29,5 -7,0 -12,-1 -18,-3 -5,-2 -9,-5 -12,-9 -2,-3 -4,-8 -5,-14 -1,-4 -1,-13 -1,-26l0 -60 -17 0 0 -29 17 0 0 -27 36 -21 0 48 25 0zm24 0l34 0 0 20c4,-7 10,-13 18,-17 7,-4 16,-6 25,-6 16,0 29,6 40,19 11,12 17,30 17,52 0,23 -6,41 -17,53 -11,13 -25,19 -41,19 -8,0 -14,-2 -21,-4 -6,-3 -13,-8 -19,-16l0 69 -36 0 0 -189zm36 66c0,15 3,27 9,34 6,7 14,11 22,11 8,0 15,-3 21,-10 6,-7 8,-18 8,-33 0,-14 -3,-25 -9,-32 -6,-7 -13,-10 -21,-10 -9,0 -16,3 -22,10 -6,7 -9,17 -9,30zm133 -30l0 -36 36 0 0 36 -36 0zm0 101l0 -36 36 0 0 36 -36 0zm62 3l47 -196 27 0 -47 196 -27 0zm73 0l47 -196 27 0 -47 196 -27 0zm93 -3l0 -189 36 0 0 189 -36 0zm65 -70c0,-12 3,-24 9,-35 6,-11 14,-20 25,-26 11,-6 23,-9 36,-9 21,0 38,7 51,20 13,13 20,30 20,51 0,21 -7,38 -20,52 -13,14 -30,20 -51,20 -13,0 -25,-3 -36,-9 -11,-6 -20,-14 -26,-25 -6,-11 -9,-24 -9,-40zm37 2c0,14 3,24 10,31 6,7 14,11 24,11 9,0 17,-4 24,-11 6,-7 10,-18 10,-31 0,-13 -3,-24 -10,-31 -6,-7 -14,-11 -24,-11 -9,0 -17,4 -24,11 -6,7 -10,18 -10,31zm129 78l41 5c1,5 2,8 5,10 3,3 9,4 16,4 9,0 17,-1 21,-4 3,-2 6,-5 7,-9 1,-3 2,-9 2,-17l0 -20c-11,15 -25,22 -41,22 -18,0 -33,-8 -44,-23 -8,-12 -13,-28 -13,-46 0,-23 6,-41 17,-53 11,-12 25,-18 41,-18 17,0 31,7 42,22l0 -19 34 0 0 123c0,16 -1,28 -4,36 -3,8 -6,14 -11,19 -5,5 -11,8 -19,11 -8,3 -18,4 -31,4 -23,0 -40,-4 -49,-12 -10,-8 -15,-18 -15,-30 0,-1 0,-3 0,-4zm32 -80c0,15 3,25 8,32 6,7 13,10 21,10 9,0 16,-3 22,-10 6,-7 9,-17 9,-31 0,-14 -3,-25 -9,-32 -6,-7 -13,-10 -22,-10 -9,0 -16,3 -21,10 -6,7 -8,17 -8,31zm124 1c0,-12 3,-24 9,-35 6,-11 14,-20 25,-26 11,-6 23,-9 36,-9 21,0 38,7 51,20 13,13 20,30 20,51 0,21 -7,38 -20,52 -13,14 -30,20 -50,20 -13,0 -25,-3 -36,-9 -11,-6 -20,-14 -26,-25 -6,-11 -9,-24 -9,-40zm37 2c0,14 3,24 10,31 6,7 14,11 24,11 9,0 17,-4 24,-11 6,-7 10,-18 10,-31 0,-13 -3,-24 -10,-31 -6,-7 -14,-11 -24,-11 -9,0 -17,4 -24,11 -6,7 -10,18 -10,31zm128 18l0 -36 71 0 0 36 -71 0zm130 50l-55 -137 38 0 26 70 7 23c2,-6 3,-10 4,-12 1,-4 3,-8 4,-12l26 -70 37 0 -54 137 -33 0zm189 -44l36 6c-5,13 -12,23 -22,30 -10,7 -23,10 -38,10 -24,0 -41,-8 -53,-23 -9,-12 -14,-28 -14,-47 0,-23 6,-41 18,-53 12,-13 27,-19 45,-19 20,0 36,7 48,20 12,13 17,34 17,62l-91 0c0,11 3,19 9,25 6,6 13,9 21,9 6,0 10,-2 14,-5 4,-3 7,-8 9,-15zm2 -37c0,-11 -3,-18 -8,-24 -5,-5 -11,-8 -19,-8 -8,0 -14,3 -20,9 -5,6 -8,14 -8,23l54 0zm185 -16l-36 6c-1,-7 -4,-13 -8,-16 -4,-4 -10,-5 -17,-5 -9,0 -16,3 -22,9 -5,6 -8,17 -8,31 0,16 3,28 8,34 5,7 13,10 22,10 7,0 13,-2 17,-6 4,-4 7,-11 9,-20l36 6c-4,16 -11,29 -21,37 -10,8 -25,13 -42,13 -20,0 -36,-6 -48,-19 -12,-13 -18,-30 -18,-53 0,-23 6,-40 18,-53 12,-13 28,-19 49,-19 17,0 30,4 40,11 10,7 17,18 21,33zm90 -41l0 29 -25 0 0 55c0,11 0,18 1,20 0,2 2,3 3,5 2,1 4,2 6,2 3,0 8,-1 15,-3l3 28c-8,4 -18,5 -29,5 -7,0 -12,-1 -18,-3 -5,-2 -9,-5 -12,-9 -2,-3 -4,-8 -5,-14 -1,-4 -1,-13 -1,-26l0 -60 -17 0 0 -29 17 0 0 -27 36 -21 0 48 25 0zm17 67c0,-12 3,-24 9,-35 6,-11 14,-20 25,-26 11,-6 23,-9 36,-9 21,0 38,7 51,20 13,13 20,30 20,51 0,21 -7,38 -20,52 -13,14 -30,20 -50,20 -13,0 -25,-3 -36,-9 -11,-6 -20,-14 -26,-25 -6,-11 -9,-24 -9,-40zm37 2c0,14 3,24 10,31 6,7 14,11 24,11 9,0 17,-4 24,-11 6,-7 10,-18 10,-31 0,-13 -3,-24 -10,-31 -6,-7 -14,-11 -24,-11 -9,0 -17,4 -24,11 -6,7 -10,18 -10,31zm167 69l-36 0 0 -137 34 0 0 19c6,-9 11,-15 16,-18 5,-3 10,-4 16,-4 8,0 16,2 24,7l-11 32c-6,-4 -12,-6 -17,-6 -5,0 -9,1 -13,4 -4,3 -6,8 -8,15 -2,7 -3,23 -3,46l0 42zm188 -96l-36 6c-1,-7 -4,-13 -8,-16 -4,-4 -10,-5 -17,-5 -9,0 -16,3 -22,9 -5,6 -8,17 -8,31 0,16 3,28 8,34 5,7 13,10 22,10 7,0 13,-2 17,-6 4,-4 7,-11 9,-20l36 6c-4,16 -11,29 -21,37 -10,8 -25,13 -42,13 -20,0 -36,-6 -48,-19 -12,-13 -18,-30 -18,-53 0,-23 6,-40 18,-53 12,-13 28,-19 49,-19 17,0 30,4 40,11 10,7 17,18 21,33zm153 96l-34 0 0 -20c-6,8 -12,14 -20,17 -8,4 -15,6 -23,6 -16,0 -29,-6 -40,-19 -11,-13 -17,-30 -17,-53 0,-23 5,-41 16,-53 11,-12 25,-18 41,-18 15,0 29,6 40,19l0 -68 36 0 0 189zm-97 -71c0,15 2,25 6,32 6,9 14,14 24,14 8,0 15,-4 21,-11 6,-7 9,-18 9,-32 0,-16 -3,-27 -9,-34 -6,-7 -13,-10 -22,-10 -9,0 -16,3 -22,10 -6,7 -9,17 -9,31zm167 71l-36 0 0 -137 34 0 0 19c6,-9 11,-15 16,-18 5,-3 10,-4 16,-4 8,0 16,2 24,7l-11 32c-6,-4 -12,-6 -17,-6 -5,0 -9,1 -13,4 -4,3 -6,8 -8,15 -2,7 -3,23 -3,46l0 42zm54 0l0 -36 36 0 0 36 -36 0zm72 0l0 -189 36 0 0 68c11,-13 24,-19 40,-19 17,0 30,6 41,18 11,12 16,29 16,52 0,23 -6,41 -17,54 -11,13 -25,19 -41,19 -8,0 -16,-2 -23,-6 -8,-4 -14,-10 -20,-17l0 20 -34 0zm36 -71c0,14 2,25 7,31 6,10 15,14 25,14 8,0 15,-3 20,-10 6,-7 8,-18 8,-32 0,-16 -3,-27 -9,-34 -6,-7 -13,-10 -22,-10 -9,0 -16,3 -22,10 -6,7 -9,17 -9,31zm127 71l0 -189 36 0 0 189 -36 0zm65 -70c0,-12 3,-24 9,-35 6,-11 14,-20 25,-26 11,-6 23,-9 36,-9 21,0 38,7 51,20 13,13 20,30 20,51 0,21 -7,38 -20,52 -13,14 -30,20 -50,20 -13,0 -25,-3 -36,-9 -11,-6 -20,-14 -26,-25 -6,-11 -9,-24 -9,-40zm37 2c0,14 3,24 10,31 6,7 14,11 24,11 9,0 17,-4 24,-11 6,-7 10,-18 10,-31 0,-13 -3,-24 -10,-31 -6,-7 -14,-11 -24,-11 -9,0 -17,4 -24,11 -6,7 -10,18 -10,31zm129 78l41 5c1,5 2,8 5,10 3,3 9,4 16,4 9,0 17,-1 21,-4 3,-2 6,-5 7,-9 1,-3 2,-9 2,-17l0 -20c-11,15 -25,22 -41,22 -18,0 -33,-8 -44,-23 -8,-12 -13,-28 -13,-46 0,-23 6,-41 17,-53 11,-12 25,-18 41,-18 17,0 31,7 42,22l0 -19 34 0 0 123c0,16 -1,28 -4,36 -3,8 -6,14 -11,19 -5,5 -11,8 -19,11 -8,3 -18,4 -31,4 -23,0 -40,-4 -49,-12 -10,-8 -15,-18 -15,-30 0,-1 0,-3 0,-4zm32 -80c0,15 3,25 8,32 6,7 13,10 21,10 9,0 16,-3 22,-10 6,-7 9,-17 9,-31 0,-14 -3,-25 -9,-32 -6,-7 -13,-10 -22,-10 -9,0 -16,3 -21,10 -6,7 -8,17 -8,31zm120 32l36 -6c2,7 5,12 9,16 5,4 11,6 20,6 9,0 16,-2 21,-5 3,-2 5,-6 5,-10 0,-3 -1,-5 -3,-7 -2,-2 -6,-3 -12,-5 -29,-6 -48,-12 -56,-18 -11,-7 -16,-18 -16,-31 0,-12 5,-22 14,-30 9,-8 24,-12 44,-12 19,0 33,3 42,9 9,6 15,15 19,27l-34 6c-1,-5 -4,-9 -8,-12 -4,-3 -10,-4 -17,-4 -10,0 -16,1 -21,4 -3,2 -4,4 -4,7 0,3 1,5 4,7 3,2 15,6 34,10 19,4 33,10 40,16 8,6 11,15 11,27 0,13 -5,23 -16,32 -10,9 -26,14 -47,14 -19,0 -33,-4 -44,-11 -11,-8 -18,-18 -21,-31zm159 -98l34 0 0 20c4,-7 10,-13 18,-17 7,-4 16,-6 25,-6 16,0 29,6 40,19 11,12 17,30 17,52 0,23 -6,41 -17,53 -11,13 -25,19 -41,19 -8,0 -14,-2 -21,-4 -6,-3 -13,-8 -19,-16l0 69 -36 0 0 -189zm36 66c0,15 3,27 9,34 6,7 14,11 22,11 8,0 15,-3 21,-10 6,-7 8,-18 8,-33 0,-14 -3,-25 -9,-32 -6,-7 -13,-10 -21,-10 -9,0 -16,3 -22,10 -6,7 -9,17 -9,30zm118 0c0,-12 3,-24 9,-35 6,-11 14,-20 25,-26 11,-6 23,-9 36,-9 21,0 38,7 51,20 13,13 20,30 20,51 0,21 -7,38 -20,52 -13,14 -30,20 -51,20 -13,0 -25,-3 -36,-9 -11,-6 -20,-14 -26,-25 -6,-11 -9,-24 -9,-40zm37 2c0,14 3,24 10,31 6,7 14,11 24,11 9,0 17,-4 24,-11 6,-7 10,-18 10,-31 0,-13 -3,-24 -10,-31 -6,-7 -14,-11 -24,-11 -9,0 -17,4 -24,11 -6,7 -10,18 -10,31zm195 -68l0 29 -25 0 0 55c0,11 0,18 1,20 0,2 2,3 3,5 2,1 4,2 6,2 3,0 8,-1 15,-3l3 28c-8,4 -18,5 -29,5 -7,0 -12,-1 -18,-3 -5,-2 -9,-5 -12,-9 -2,-3 -4,-8 -5,-14 -1,-4 -1,-13 -1,-26l0 -60 -17 0 0 -29 17 0 0 -27 36 -21 0 48 25 0zm25 137l0 -36 36 0 0 36 -36 0zm193 -96l-36 6c-1,-7 -4,-13 -8,-16 -4,-4 -10,-5 -17,-5 -9,0 -16,3 -22,9 -5,6 -8,17 -8,31 0,16 3,28 8,34 5,7 13,10 22,10 7,0 13,-2 17,-6 4,-4 7,-11 9,-20l36 6c-4,16 -11,29 -21,37 -10,8 -25,13 -42,13 -20,0 -36,-6 -48,-19 -12,-13 -18,-30 -18,-53 0,-23 6,-40 18,-53 12,-13 28,-19 49,-19 17,0 30,4 40,11 10,7 17,18 21,33zm19 26c0,-12 3,-24 9,-35 6,-11 14,-20 25,-26 11,-6 23,-9 36,-9 21,0 38,7 51,20 13,13 20,30 20,51 0,21 -7,38 -20,52 -13,14 -30,20 -50,20 -13,0 -25,-3 -36,-9 -11,-6 -20,-14 -26,-25 -6,-11 -9,-24 -9,-40zm37 2c0,14 3,24 10,31 6,7 14,11 24,11 9,0 17,-4 24,-11 6,-7 10,-18 10,-31 0,-13 -3,-24 -10,-31 -6,-7 -14,-11 -24,-11 -9,0 -17,4 -24,11 -6,7 -10,18 -10,31zm130 -68l33 0 0 19c12,-15 26,-22 43,-22 9,0 16,2 23,5 6,4 12,9 16,16 6,-7 13,-13 19,-16 7,-4 14,-5 22,-5 10,0 19,2 26,6 7,4 12,10 16,18 3,6 4,15 4,28l0 88 -36 0 0 -78c0,-14 -1,-22 -4,-26 -3,-5 -8,-8 -15,-8 -5,0 -10,2 -14,5 -4,3 -8,8 -10,14 -2,6 -3,15 -3,28l0 66 -36 0 0 -75c0,-13 -1,-22 -2,-26 -1,-4 -3,-7 -6,-9 -3,-2 -6,-3 -11,-3 -6,0 -11,1 -15,5 -4,3 -8,7 -10,13 -2,6 -3,15 -3,28l0 67 -36 0 0 -137zm218 140l47 -196 27 0 -47 196 -27 0z"/>
   </g>
  </g>
  <path class="fil4" d="M118 3100l0 -24 56 0 0 50c-11,7 -20,12 -28,15 -8,3 -18,4 -29,4 -14,0 -25,-2 -34,-7 -9,-5 -16,-12 -20,-21 -5,-9 -7,-20 -7,-32 0,-13 3,-24 8,-33 5,-9 13,-17 23,-22 8,-4 19,-6 32,-6 13,0 23,1 29,4 6,2 12,6 16,11 4,5 7,11 10,19l-35 6c-1,-4 -4,-8 -7,-10 -3,-2 -8,-4 -13,-4 -8,0 -14,3 -19,8 -5,6 -7,14 -7,26 0,13 2,22 7,27 5,5 11,8 20,8 4,0 8,-1 12,-2 4,-1 8,-3 13,-6l0 -11 -24 0zm77 -75l97 0 0 25 -61 0 0 19 56 0 0 24 -56 0 0 23 62 0 0 27 -99 0 0 -117zm119 117l0 -117 60 0c11,0 20,1 26,3 6,2 11,5 14,11 4,5 5,12 5,19 0,7 -1,12 -4,17 -3,5 -7,9 -11,11 -3,2 -7,3 -13,5 4,1 7,3 9,4 1,1 3,3 6,6 3,3 4,6 5,7l17 34 -41 0 -19 -36c-2,-5 -5,-8 -7,-9 -3,-2 -6,-3 -9,-3l-3 0 0 47 -36 0zm36 -70l15 0c2,0 5,-1 10,-2 2,0 4,-2 6,-4 2,-2 2,-4 2,-7 0,-4 -1,-7 -4,-9 -2,-2 -7,-3 -13,-3l-16 0 0 24zm162 50l-41 0 -6 19 -37 0 44 -117 39 0 44 117 -38 0 -6 -19zm-8 -25l-13 -42 -13 42 26 0zm63 -72l36 0 0 44 38 -44 48 0 -43 44 45 73 -45 0 -25 -48 -19 20 0 29 -36 0 0 -117zm208 98l-41 0 -6 19 -37 0 44 -117 39 0 44 117 -38 0 -6 -19zm-8 -25l-13 -42 -13 42 26 0zm63 -72l34 0 44 65 0 -65 34 0 0 117 -34 0 -44 -64 0 64 -34 0 0 -117zm192 0l36 0 0 117 -36 0 0 -117zm62 0l34 0 44 65 0 -65 34 0 0 117 -34 0 -44 -64 0 64 -34 0 0 -117zm136 0l54 0c11,0 19,1 26,4 7,3 12,7 16,12 4,5 7,12 9,19 2,7 3,15 3,23 0,13 -1,22 -4,29 -3,7 -7,13 -12,17 -5,5 -10,8 -16,9 -8,2 -15,3 -22,3l-54 0 0 -117zm36 27l0 64 9 0c8,0 13,-1 16,-3 3,-2 6,-5 8,-9 2,-4 3,-11 3,-20 0,-12 -2,-21 -6,-25 -4,-5 -11,-7 -20,-7l-9 0zm86 32c0,-19 5,-34 16,-45 11,-11 25,-16 44,-16 19,0 35,5 45,16 11,10 16,25 16,44 0,14 -2,25 -7,34 -5,9 -11,16 -20,20 -9,5 -20,7 -33,7 -13,0 -24,-2 -33,-6 -9,-4 -16,-11 -21,-20 -5,-9 -8,-20 -8,-34zm36 0c0,12 2,20 7,25 4,5 10,8 18,8 8,0 14,-3 18,-8 4,-5 6,-14 6,-27 0,-11 -2,-19 -7,-24 -4,-5 -10,-8 -18,-8 -7,0 -13,3 -18,8 -4,5 -7,14 -7,26zm105 -59l34 0 44 65 0 -65 34 0 0 117 -34 0 -44 -64 0 64 -34 0 0 -117zm136 0l97 0 0 25 -61 0 0 19 56 0 0 24 -56 0 0 23 62 0 0 27 -99 0 0 -117zm112 78l34 -2c1,6 2,10 5,13 4,5 9,7 16,7 5,0 9,-1 12,-4 3,-2 4,-5 4,-8 0,-3 -1,-6 -4,-8 -3,-2 -9,-5 -19,-7 -16,-4 -27,-8 -34,-14 -7,-6 -10,-13 -10,-23 0,-6 2,-12 5,-17 3,-5 9,-10 16,-13 7,-3 17,-5 29,-5 15,0 26,3 34,8 8,6 13,14 14,27l-34 2c-1,-5 -3,-9 -6,-12 -3,-2 -7,-4 -12,-4 -4,0 -7,1 -10,3 -2,2 -3,4 -3,7 0,2 1,4 3,5 2,2 6,3 12,4 16,3 27,7 34,10 7,3 12,8 15,13 3,5 5,11 5,17 0,7 -2,14 -6,21 -4,6 -10,11 -17,14 -7,3 -17,5 -28,5 -20,0 -34,-4 -41,-12 -8,-8 -12,-17 -13,-29zm126 -78l36 0 0 117 -36 0 0 -117zm134 98l-41 0 -6 19 -37 0 44 -117 39 0 44 117 -38 0 -6 -19zm-8 -25l-13 -42 -13 42 26 0zm118 45l0 -117 60 0c11,0 20,1 26,3 6,2 11,5 14,11 4,5 5,12 5,19 0,7 -1,12 -4,17 -3,5 -7,9 -11,11 -3,2 -7,3 -13,5 4,1 7,3 9,4 1,1 3,3 6,6 3,3 4,6 5,7l18 34 -41 0 -19 -36c-2,-5 -5,-8 -7,-9 -3,-2 -6,-3 -9,-3l-3 0 0 47 -36 0zm36 -70l15 0c2,0 5,-1 10,-2 2,0 4,-2 6,-4 2,-2 2,-4 2,-7 0,-4 -1,-7 -4,-9 -2,-2 -7,-3 -13,-3l-16 0 0 24zm162 50l-41 0 -6 19 -37 0 44 -117 39 0 44 117 -38 0 -6 -19zm-8 -25l-13 -42 -13 42 26 0zm37 -72l40 0 24 40 24 -40 40 0 -46 68 0 49 -36 0 0 -49 -46 -68zm196 98l-41 0 -6 19 -37 0 44 -117 39 0 44 117 -38 0 -6 -19zm-8 -25l-13 -42 -13 42 26 0z"/>
  <path class="fil2" d="M208 2852l0 -65 149 0 0 133c-28,19 -54,33 -76,40 -22,7 -48,11 -78,11 -37,0 -67,-6 -90,-19 -23,-13 -41,-31 -54,-56 -13,-25 -19,-54 -19,-86 0,-34 7,-64 21,-89 14,-25 35,-44 62,-57 21,-10 50,-15 85,-15 34,0 60,3 77,9 17,6 31,16 43,29 11,13 20,30 25,50l-93 17c-4,-12 -10,-21 -20,-27 -9,-6 -21,-9 -35,-9 -21,0 -38,7 -51,22 -13,15 -19,38 -19,70 0,34 6,58 19,72 13,14 30,22 53,22 11,0 21,-2 31,-5 10,-3 21,-8 34,-16l0 -29 -64 0zm206 -199l258 0 0 67 -162 0 0 50 150 0 0 64 -150 0 0 61 166 0 0 71 -263 0 0 -312zm316 312l0 -312 161 0c30,0 53,3 68,8 16,5 28,15 38,28 10,14 14,31 14,50 0,17 -4,32 -11,45 -7,13 -18,23 -30,31 -8,5 -20,9 -34,12 11,4 20,8 25,12 3,3 9,8 15,16 7,8 11,15 14,19l47 90 -109 0 -51 -95c-7,-12 -12,-20 -17,-24 -7,-5 -15,-7 -24,-7l-9 0 0 127 -97 0zm97 -186l41 0c4,0 13,-1 25,-4 6,-1 12,-5 16,-10 4,-5 6,-11 6,-18 0,-10 -3,-18 -10,-23 -6,-5 -18,-8 -36,-8l-42 0 0 63zm245 -126l97 0 0 312 -97 0 0 -312zm166 0l90 0 117 173 0 -173 91 0 0 312 -91 0 -117 -171 0 171 -91 0 0 -312zm364 0l143 0c28,0 51,4 68,11 17,8 32,19 43,33 11,14 20,31 25,50 5,19 8,39 8,60 0,33 -4,59 -11,78 -8,18 -18,34 -32,46 -13,12 -28,21 -43,25 -21,6 -40,8 -57,8l-143 0 0 -312zm96 71l0 170 24 0c20,0 34,-2 43,-7 9,-4 15,-12 20,-23 5,-11 7,-29 7,-54 0,-33 -5,-56 -16,-68 -11,-12 -29,-18 -54,-18l-24 0zm243 241l0 -312 161 0c30,0 53,3 68,8 16,5 28,15 38,28 10,14 14,31 14,50 0,17 -4,32 -11,45 -7,13 -18,23 -30,31 -8,5 -20,9 -34,12 11,4 20,8 25,12 3,3 9,8 15,16 7,8 11,15 14,19l47 90 -109 0 -51 -95c-7,-12 -12,-20 -18,-24 -7,-5 -15,-7 -24,-7l-8 0 0 127 -97 0zm97 -186l41 0c4,0 13,-1 26,-4 6,-1 12,-5 16,-10 4,-5 6,-11 6,-18 0,-10 -3,-18 -10,-23 -6,-5 -18,-8 -36,-8l-42 0 0 63zm433 134l-110 0 -15 51 -98 0 117 -312 105 0 117 312 -101 0 -15 -51zm-20 -67l-34 -112 -34 112 69 0z"/>
  <g style="clip-path:url(#id1)">
   <g id="_310792272">
    <path id="1" class="fil3" d="M-1133 4947l0 70c12,-14 26,-21 42,-21 8,0 16,2 23,5 7,3 12,7 15,12 3,5 6,10 7,16 1,6 2,15 2,27l0 80 -36 0 0 -72c0,-14 -1,-23 -2,-27 -1,-4 -4,-7 -7,-9 -3,-2 -8,-3 -13,-3 -6,0 -11,1 -16,4 -5,3 -8,7 -10,13 -2,6 -3,15 -3,26l0 69 -36 0 0 -189 36 0zm188 52l0 29 -25 0 0 55c0,11 0,18 1,20 0,2 2,3 3,5 2,1 4,2 6,2 3,0 8,-1 15,-3l3 28c-8,4 -18,5 -29,5 -7,0 -12,-1 -18,-3 -5,-2 -9,-5 -12,-9 -2,-3 -4,-8 -5,-14 -1,-4 -1,-13 -1,-26l0 -60 -17 0 0 -29 17 0 0 -27 36 -21 0 48 25 0zm88 0l0 29 -25 0 0 55c0,11 0,18 1,20 0,2 2,3 3,5 2,1 4,2 6,2 3,0 8,-1 15,-3l3 28c-8,4 -18,5 -29,5 -7,0 -12,-1 -18,-3 -5,-2 -9,-5 -12,-9 -2,-3 -4,-8 -5,-14 -1,-4 -1,-13 -1,-26l0 -60 -17 0 0 -29 17 0 0 -27 36 -21 0 48 25 0zm24 0l34 0 0 20c4,-7 10,-13 18,-17 7,-4 16,-6 25,-6 16,0 29,6 40,19 11,12 17,30 17,52 0,23 -6,41 -17,53 -11,13 -25,19 -41,19 -8,0 -14,-2 -21,-4 -6,-3 -13,-8 -19,-16l0 69 -36 0 0 -189zm36 66c0,15 3,27 9,34 6,7 14,11 22,11 8,0 15,-3 21,-10 6,-7 8,-18 8,-33 0,-14 -3,-25 -9,-32 -6,-7 -13,-10 -21,-10 -9,0 -16,3 -22,10 -6,7 -9,17 -9,30zm133 -30l0 -36 36 0 0 36 -36 0zm0 101l0 -36 36 0 0 36 -36 0zm62 3l47 -196 27 0 -47 196 -27 0zm73 0l47 -196 27 0 -47 196 -27 0zm93 -3l0 -189 36 0 0 189 -36 0zm65 -70c0,-12 3,-24 9,-35 6,-11 14,-20 25,-26 11,-6 23,-9 36,-9 21,0 38,7 51,20 13,13 20,30 20,51 0,21 -7,38 -20,52 -13,14 -30,20 -51,20 -13,0 -25,-3 -36,-9 -11,-6 -20,-14 -26,-25 -6,-11 -9,-24 -9,-40zm37 2c0,14 3,24 10,31 6,7 14,11 24,11 9,0 17,-4 24,-11 6,-7 10,-18 10,-31 0,-13 -3,-24 -10,-31 -6,-7 -14,-11 -24,-11 -9,0 -17,4 -24,11 -6,7 -10,18 -10,31zm129 78l41 5c1,5 2,8 5,10 3,3 9,4 16,4 9,0 17,-1 21,-4 3,-2 6,-5 7,-9 1,-3 2,-9 2,-17l0 -20c-11,15 -25,22 -41,22 -18,0 -33,-8 -44,-23 -8,-12 -13,-28 -13,-46 0,-23 6,-41 17,-53 11,-12 25,-18 41,-18 17,0 31,7 42,22l0 -19 34 0 0 123c0,16 -1,28 -4,36 -3,8 -6,14 -11,19 -5,5 -11,8 -19,11 -8,3 -18,4 -31,4 -23,0 -40,-4 -49,-12 -10,-8 -15,-18 -15,-30 0,-1 0,-3 0,-4zm32 -80c0,15 3,25 8,32 6,7 13,10 21,10 9,0 16,-3 22,-10 6,-7 9,-17 9,-31 0,-14 -3,-25 -9,-32 -6,-7 -13,-10 -22,-10 -9,0 -16,3 -21,10 -6,7 -8,17 -8,31zm124 1c0,-12 3,-24 9,-35 6,-11 14,-20 25,-26 11,-6 23,-9 36,-9 21,0 38,7 51,20 13,13 20,30 20,51 0,21 -7,38 -20,52 -13,14 -30,20 -50,20 -13,0 -25,-3 -36,-9 -11,-6 -20,-14 -26,-25 -6,-11 -9,-24 -9,-40zm37 2c0,14 3,24 10,31 6,7 14,11 24,11 9,0 17,-4 24,-11 6,-7 10,-18 10,-31 0,-13 -3,-24 -10,-31 -6,-7 -14,-11 -24,-11 -9,0 -17,4 -24,11 -6,7 -10,18 -10,31zm128 18l0 -36 71 0 0 36 -71 0zm130 50l-55 -137 38 0 26 70 7 23c2,-6 3,-10 4,-12 1,-4 3,-8 4,-12l26 -70 37 0 -54 137 -33 0zm189 -44l36 6c-5,13 -12,23 -22,30 -10,7 -23,10 -38,10 -24,0 -41,-8 -53,-23 -9,-12 -14,-28 -14,-47 0,-23 6,-41 18,-53 12,-13 27,-19 45,-19 20,0 36,7 48,20 12,13 17,34 17,62l-91 0c0,11 3,19 9,25 6,6 13,9 21,9 6,0 10,-2 14,-5 4,-3 7,-8 9,-15zm2 -37c0,-11 -3,-18 -8,-24 -5,-5 -11,-8 -19,-8 -8,0 -14,3 -20,9 -5,6 -8,14 -8,23l54 0zm185 -16l-36 6c-1,-7 -4,-13 -8,-16 -4,-4 -10,-5 -17,-5 -9,0 -16,3 -22,9 -5,6 -8,17 -8,31 0,16 3,28 8,34 5,7 13,10 22,10 7,0 13,-2 17,-6 4,-4 7,-11 9,-20l36 6c-4,16 -11,29 -21,37 -10,8 -25,13 -42,13 -20,0 -36,-6 -48,-19 -12,-13 -18,-30 -18,-53 0,-23 6,-40 18,-53 12,-13 28,-19 49,-19 17,0 30,4 40,11 10,7 17,18 21,33zm90 -41l0 29 -25 0 0 55c0,11 0,18 1,20 0,2 2,3 3,5 2,1 4,2 6,2 3,0 8,-1 15,-3l3 28c-8,4 -18,5 -29,5 -7,0 -12,-1 -18,-3 -5,-2 -9,-5 -12,-9 -2,-3 -4,-8 -5,-14 -1,-4 -1,-13 -1,-26l0 -60 -17 0 0 -29 17 0 0 -27 36 -21 0 48 25 0zm17 67c0,-12 3,-24 9,-35 6,-11 14,-20 25,-26 11,-6 23,-9 36,-9 21,0 38,7 51,20 13,13 20,30 20,51 0,21 -7,38 -20,52 -13,14 -30,20 -51,20 -13,0 -25,-3 -36,-9 -11,-6 -20,-14 -26,-25 -6,-11 -9,-24 -9,-40zm37 2c0,14 3,24 10,31 6,7 14,11 24,11 9,0 17,-4 24,-11 6,-7 10,-18 10,-31 0,-13 -3,-24 -10,-31 -6,-7 -14,-11 -24,-11 -9,0 -17,4 -24,11 -6,7 -10,18 -10,31zm167 69l-36 0 0 -137 34 0 0 19c6,-9 11,-15 16,-18 5,-3 10,-4 16,-4 8,0 16,2 24,7l-11 32c-6,-4 -12,-6 -17,-6 -5,0 -9,1 -13,4 -4,3 -6,8 -8,15 -2,7 -3,23 -3,46l0 42zm188 -96l-36 6c-1,-7 -4,-13 -8,-16 -4,-4 -10,-5 -17,-5 -9,0 -16,3 -22,9 -5,6 -8,17 -8,31 0,16 3,28 8,34 5,7 13,10 22,10 7,0 13,-2 17,-6 4,-4 7,-11 9,-20l36 6c-4,16 -11,29 -21,37 -10,8 -25,13 -42,13 -20,0 -36,-6 -48,-19 -12,-13 -18,-30 -18,-53 0,-23 6,-40 18,-53 12,-13 28,-19 49,-19 17,0 30,4 40,11 10,7 17,18 21,33zm153 96l-34 0 0 -20c-6,8 -12,14 -20,17 -8,4 -15,6 -23,6 -16,0 -29,-6 -40,-19 -11,-13 -17,-30 -17,-53 0,-23 5,-41 16,-53 11,-12 25,-18 41,-18 15,0 29,6 40,19l0 -68 36 0 0 189zm-97 -71c0,15 2,25 6,32 6,9 14,14 24,14 8,0 15,-4 21,-11 6,-7 9,-18 9,-32 0,-16 -3,-27 -9,-34 -6,-7 -13,-10 -22,-10 -9,0 -16,3 -22,10 -6,7 -9,17 -9,31zm167 71l-36 0 0 -137 34 0 0 19c6,-9 11,-15 16,-18 5,-3 10,-4 16,-4 8,0 16,2 24,7l-11 32c-6,-4 -12,-6 -17,-6 -5,0 -9,1 -13,4 -4,3 -6,8 -8,15 -2,7 -3,23 -3,46l0 42zm54 0l0 -36 36 0 0 36 -36 0zm72 0l0 -189 36 0 0 68c11,-13 24,-19 40,-19 17,0 30,6 41,18 11,12 16,29 16,52 0,23 -6,41 -17,54 -11,13 -25,19 -41,19 -8,0 -16,-2 -23,-6 -8,-4 -14,-10 -20,-17l0 20 -34 0zm36 -71c0,14 2,25 7,31 6,10 15,14 25,14 8,0 15,-3 20,-10 6,-7 8,-18 8,-32 0,-16 -3,-27 -9,-34 -6,-7 -13,-10 -22,-10 -9,0 -16,3 -22,10 -6,7 -9,17 -9,31zm127 71l0 -189 36 0 0 189 -36 0zm65 -70c0,-12 3,-24 9,-35 6,-11 14,-20 25,-26 11,-6 23,-9 36,-9 21,0 38,7 51,20 13,13 20,30 20,51 0,21 -7,38 -20,52 -13,14 -30,20 -50,20 -13,0 -25,-3 -36,-9 -11,-6 -20,-14 -26,-25 -6,-11 -9,-24 -9,-40zm37 2c0,14 3,24 10,31 6,7 14,11 24,11 9,0 17,-4 24,-11 6,-7 10,-18 10,-31 0,-13 -3,-24 -10,-31 -6,-7 -14,-11 -24,-11 -9,0 -17,4 -24,11 -6,7 -10,18 -10,31zm129 78l41 5c1,5 2,8 5,10 3,3 9,4 16,4 9,0 17,-1 21,-4 3,-2 6,-5 7,-9 1,-3 2,-9 2,-17l0 -20c-11,15 -25,22 -41,22 -18,0 -33,-8 -44,-23 -8,-12 -13,-28 -13,-46 0,-23 6,-41 17,-53 11,-12 25,-18 41,-18 17,0 31,7 42,22l0 -19 34 0 0 123c0,16 -1,28 -4,36 -3,8 -6,14 -11,19 -5,5 -11,8 -19,11 -8,3 -18,4 -31,4 -23,0 -40,-4 -49,-12 -10,-8 -15,-18 -15,-30 0,-1 0,-3 0,-4zm32 -80c0,15 3,25 8,32 6,7 13,10 21,10 9,0 16,-3 22,-10 6,-7 9,-17 9,-31 0,-14 -3,-25 -9,-32 -6,-7 -13,-10 -22,-10 -9,0 -16,3 -21,10 -6,7 -8,17 -8,31zm120 32l36 -6c2,7 5,12 9,16 5,4 11,6 20,6 9,0 16,-2 21,-5 3,-2 5,-6 5,-10 0,-3 -1,-5 -3,-7 -2,-2 -6,-3 -12,-5 -29,-6 -48,-12 -56,-18 -11,-7 -16,-18 -16,-31 0,-12 5,-22 14,-30 9,-8 24,-12 44,-12 19,0 33,3 42,9 9,6 15,15 19,27l-34 6c-1,-5 -4,-9 -8,-12 -4,-3 -10,-4 -17,-4 -10,0 -16,1 -21,4 -3,2 -4,4 -4,7 0,3 1,5 4,7 3,2 15,6 34,10 19,4 33,10 40,16 8,6 11,15 11,27 0,13 -5,23 -16,32 -10,9 -26,14 -47,14 -19,0 -33,-4 -44,-11 -11,-8 -18,-18 -21,-31zm159 -98l34 0 0 20c4,-7 10,-13 18,-17 7,-4 16,-6 25,-6 16,0 29,6 40,19 11,12 17,30 17,52 0,23 -6,41 -17,53 -11,13 -25,19 -41,19 -8,0 -14,-2 -21,-4 -6,-3 -13,-8 -19,-16l0 69 -36 0 0 -189zm36 66c0,15 3,27 9,34 6,7 14,11 22,11 8,0 15,-3 21,-10 6,-7 8,-18 8,-33 0,-14 -3,-25 -9,-32 -6,-7 -13,-10 -21,-10 -9,0 -16,3 -22,10 -6,7 -9,17 -9,30zm118 0c0,-12 3,-24 9,-35 6,-11 14,-20 25,-26 11,-6 23,-9 36,-9 21,0 38,7 51,20 13,13 20,30 20,51 0,21 -7,38 -20,52 -13,14 -30,20 -51,20 -13,0 -25,-3 -36,-9 -11,-6 -20,-14 -26,-25 -6,-11 -9,-24 -9,-40zm37 2c0,14 3,24 10,31 6,7 14,11 24,11 9,0 17,-4 24,-11 6,-7 10,-18 10,-31 0,-13 -3,-24 -10,-31 -6,-7 -14,-11 -24,-11 -9,0 -17,4 -24,11 -6,7 -10,18 -10,31zm195 -68l0 29 -25 0 0 55c0,11 0,18 1,20 0,2 2,3 3,5 2,1 4,2 6,2 3,0 8,-1 15,-3l3 28c-8,4 -18,5 -29,5 -7,0 -12,-1 -18,-3 -5,-2 -9,-5 -12,-9 -2,-3 -4,-8 -5,-14 -1,-4 -1,-13 -1,-26l0 -60 -17 0 0 -29 17 0 0 -27 36 -21 0 48 25 0zm25 137l0 -36 36 0 0 36 -36 0zm193 -96l-36 6c-1,-7 -4,-13 -8,-16 -4,-4 -10,-5 -17,-5 -9,0 -16,3 -22,9 -5,6 -8,17 -8,31 0,16 3,28 8,34 5,7 13,10 22,10 7,0 13,-2 17,-6 4,-4 7,-11 9,-20l36 6c-4,16 -11,29 -21,37 -10,8 -25,13 -42,13 -20,0 -36,-6 -48,-19 -12,-13 -18,-30 -18,-53 0,-23 6,-40 18,-53 12,-13 28,-19 49,-19 17,0 30,4 40,11 10,7 17,18 21,33zm19 26c0,-12 3,-24 9,-35 6,-11 14,-20 25,-26 11,-6 23,-9 36,-9 21,0 38,7 51,20 13,13 20,30 20,51 0,21 -7,38 -20,52 -13,14 -30,20 -51,20 -13,0 -25,-3 -36,-9 -11,-6 -20,-14 -26,-25 -6,-11 -9,-24 -9,-40zm37 2c0,14 3,24 10,31 6,7 14,11 24,11 9,0 17,-4 24,-11 6,-7 10,-18 10,-31 0,-13 -3,-24 -10,-31 -6,-7 -14,-11 -24,-11 -9,0 -17,4 -24,11 -6,7 -10,18 -10,31zm130 -68l33 0 0 19c12,-15 26,-22 43,-22 9,0 16,2 23,5 6,4 12,9 16,16 6,-7 13,-13 19,-16 7,-4 14,-5 22,-5 10,0 19,2 26,6 7,4 12,10 16,18 3,6 4,15 4,28l0 88 -36 0 0 -78c0,-14 -1,-22 -4,-26 -3,-5 -9,-8 -15,-8 -5,0 -10,2 -14,5 -4,3 -8,8 -10,14 -2,6 -3,15 -3,28l0 66 -36 0 0 -75c0,-13 -1,-22 -2,-26 -1,-4 -3,-7 -6,-9 -3,-2 -6,-3 -11,-3 -6,0 -11,1 -15,5 -4,3 -8,7 -10,13 -2,6 -3,15 -3,28l0 67 -36 0 0 -137zm218 140l47 -196 27 0 -47 196 -27 0z"/>
   </g>
  </g>
  <path class="fil4" d="M208 2852l0 -65 149 0 0 133c-28,19 -54,33 -76,40 -22,7 -48,11 -78,11 -37,0 -67,-6 -90,-19 -23,-13 -41,-31 -54,-56 -13,-25 -19,-54 -19,-86 0,-34 7,-64 21,-89 14,-25 35,-44 62,-57 21,-10 50,-15 85,-15 34,0 60,3 77,9 17,6 31,16 43,29 11,13 20,30 25,50l-93 17c-4,-12 -10,-21 -20,-27 -9,-6 -21,-9 -35,-9 -21,0 -38,7 -51,22 -13,15 -19,38 -19,70 0,34 6,58 19,72 13,14 30,22 53,22 11,0 21,-2 31,-5 10,-3 21,-8 34,-16l0 -29 -64 0zm206 -199l258 0 0 67 -162 0 0 50 150 0 0 64 -150 0 0 61 166 0 0 71 -263 0 0 -312zm316 312l0 -312 161 0c30,0 53,3 68,8 16,5 28,15 38,28 10,14 14,31 14,50 0,17 -4,32 -11,45 -7,13 -18,23 -30,31 -8,5 -20,9 -34,12 11,4 20,8 25,12 3,3 9,8 15,16 7,8 11,15 14,19l47 90 -109 0 -51 -95c-7,-12 -12,-20 -17,-24 -7,-5 -15,-7 -24,-7l-9 0 0 127 -97 0zm97 -186l41 0c4,0 13,-1 25,-4 6,-1 12,-5 16,-10 4,-5 6,-11 6,-18 0,-10 -3,-18 -10,-23 -6,-5 -18,-8 -36,-8l-42 0 0 63zm245 -126l97 0 0 312 -97 0 0 -312zm166 0l90 0 117 173 0 -173 91 0 0 312 -91 0 -117 -171 0 171 -91 0 0 -312zm364 0l143 0c28,0 51,4 68,11 17,8 32,19 43,33 11,14 20,31 25,50 5,19 8,39 8,60 0,33 -4,59 -11,78 -8,18 -18,34 -32,46 -13,12 -28,21 -43,25 -21,6 -40,8 -57,8l-143 0 0 -312zm96 71l0 170 24 0c20,0 34,-2 43,-7 9,-4 15,-12 20,-23 5,-11 7,-29 7,-54 0,-33 -5,-56 -16,-68 -11,-12 -29,-18 -54,-18l-24 0zm243 241l0 -312 161 0c30,0 53,3 68,8 16,5 28,15 38,28 10,14 14,31 14,50 0,17 -4,32 -11,45 -7,13 -18,23 -30,31 -8,5 -20,9 -34,12 11,4 20,8 25,12 3,3 9,8 15,16 7,8 11,15 14,19l47 90 -109 0 -51 -95c-7,-12 -12,-20 -18,-24 -7,-5 -15,-7 -24,-7l-8 0 0 127 -97 0zm97 -186l41 0c4,0 13,-1 26,-4 6,-1 12,-5 16,-10 4,-5 6,-11 6,-18 0,-10 -3,-18 -10,-23 -6,-5 -18,-8 -36,-8l-42 0 0 63zm433 134l-110 0 -15 51 -98 0 117 -312 105 0 117 312 -101 0 -15 -51zm-20 -67l-34 -112 -34 112 69 0z"/>
  <path class="fil5" d="M657 1175c-141,-77 -257,-84 -348,-24 51,-120 156,-182 315,-188 7,-44 -2,-89 -27,-135 32,3 66,18 100,44 -1,-46 -11,-86 -29,-120 24,2 45,13 66,31 12,11 27,22 43,33 5,-52 -1,-94 -18,-127 22,4 44,17 63,42 11,14 24,28 39,40 10,-27 14,-60 10,-100 20,5 36,19 50,42 9,14 20,27 33,38 14,-24 21,-53 19,-88 27,5 48,27 63,67 132,3 232,26 303,64 70,38 154,52 248,52 114,1 241,-13 380,-46 -59,74 -150,129 -275,165 82,21 146,33 190,37 -48,37 -110,66 -186,88 34,17 81,35 139,52 -40,19 -84,34 -130,44 51,119 79,235 89,348 3,35 0,90 2,165 0,18 3,35 7,50l1 2 0 0 1 2 0 1 0 1 1 2 0 1 1 2 0 0 1 3 1 2 0 1 0 1 1 2 0 0 1 2 0 0 1 2 0 1 1 1 1 1 0 1 1 2 0 0 1 2 0 1 1 2 1 1 0 0 1 2 0 0 1 2 0 0 0 1 1 2 0 0 1 1 1 1 0 0 2 2 0 0 1 2 0 0 0 0 1 2 0 0 1 1 1 1 0 0 1 2 0 0 1 2 1 1 1 1 1 1 1 1 1 2 0 0 2 2 0 0 1 1 1 1 1 1 1 1 0 0 2 1 0 0 2 1 1 1 1 1 1 1 1 1 2 1 0 0 2 1 0 0 0 0c2,2 4,3 7,5l0 0 2 1 1 0 1 1 1 1 2 1 0 0 0 0 2 1 0 0 2 1 1 0 1 1 1 1 1 0 2 1 0 0 2 1 1 0 0 0 2 1 1 0 2 1 0 0 2 1 0 0 2 1 1 0 1 0 2 1 1 0 2 1 -2 0 -2 0 -2 0 -1 0 -1 0 -2 0 -2 0 -1 0 0 0c-27,8 -54,13 -80,17l-2 0 -5 1 -2 0 -2 0 0 0 -1 0c-86,10 -172,0 -259,-35 -9,57 -22,100 -42,124 -20,24 -50,41 -78,55 -28,-12 -53,-27 -75,-49 -22,-22 -37,-62 -46,-117 -5,59 -17,101 -39,122 -22,21 -45,35 -71,49 -34,-17 -67,-40 -92,-67 -20,-22 -28,-59 -38,-110 -3,-17 -48,12 -48,12 -52,31 -130,34 -203,28l-1 0 -1 0 -1 0 0 0 -1 0 -1 0 -4 0 -1 0 -1 0 0 0 -1 0 -1 0 -1 0 -1 0 -1 0 -1 0 -1 0 -1 0 0 0 -1 0 -1 0 -4 0 -1 0 -3 0 -1 0 -1 0 -7 -1 -1 0 -1 0 -7 -1 -1 0 -1 0 -1 0 -1 0 -1 0 -1 0 -1 0 -1 0 -1 0 -1 0 -1 0 -1 0 -1 0 -1 0 -1 0 -1 0 -2 0 -1 0 -1 0 -2 0 -2 0 -1 0 -1 0 -2 0 -2 0 -1 0 -1 0 -2 0 -2 0 0 0 -1 0 -2 0 -2 0 4 -2 2 -1 2 -1 1 -1 3 -1 0 0 3 -1 1 0 2 -1 2 -1 0 0 4 -2 0 0 3 -1 1 0 2 -1 1 -1 1 -1 2 -1 1 0 3 -2 0 0 3 -1 1 -1 2 -1 2 -1 1 0 3 -2 0 0 3 -2 1 -1 2 -1 2 -1 1 -1 3 -2 0 0 3 -2 1 0 2 -1 1 -1 1 -1 2 -2 0 0 3 -2 2 -1 1 -1 1 -1 2 -2 0 0 2 -2 0 0 2 -2 1 -1 1 -1 2 -1 1 0 2 -2 0 0 2 -2 2 -2 0 0 2 -1 1 -1 2 -2 0 0 2 -2 1 -1 2 -1 1 -1 1 -1 2 -2 0 0 2 -2 1 -1 2 -2 1 -1 1 -1 0 0 2 -2 2 -2 0 0 2 -2 1 -1 1 -1 2 -2 0 0 2 -2 0 0 2 -2 2 -2 1 -2 1 -1 2 -2 0 0 2 -2 1 -1 1 -2 1 -2 1 -1 2 -2 0 0 2 -2 4 -5 2 -2 0 0 2 -2c12,-17 24,-34 34,-52 51,-86 83,-148 73,-198 -13,-70 -76,-110 -181,-88 -213,45 -337,18 -380,-114 116,47 224,64 321,34 48,-15 93,-35 140,-47 42,-11 73,-28 92,-50 -28,-8 -83,-11 -167,-9 -33,1 -81,-17 -144,-51z"/>
  <path class="fil5" d="M816 1911c-2,21 -10,41 -24,60 -15,22 -38,42 -68,60 51,8 95,11 132,9 44,-2 79,-11 104,-27 27,-17 46,-41 57,-72 7,-20 12,-42 13,-68 -3,2 -7,4 -11,6 -33,20 -76,31 -129,33 -23,1 -48,1 -75,-1z"/>
  <path class="fil5" d="M1667 2041c1,56 24,95 67,116 47,23 119,27 216,11 -25,-14 -45,-31 -61,-51 -15,-19 -25,-41 -31,-67 -20,3 -40,4 -59,5 -46,2 -89,-3 -130,-15l-2 -1z"/>
  <path class="fil5" d="M1442 2032c-1,24 0,43 3,59 4,18 11,31 22,37 9,5 18,11 27,15 7,4 14,7 21,11 11,-5 20,-9 28,-13 12,-6 21,-11 27,-15 17,-11 29,-27 37,-50 6,-16 9,-35 11,-56 -20,-13 -36,-30 -48,-50 -11,-18 -19,-40 -24,-63 -2,6 -3,11 -5,16l0 0c-8,23 -17,43 -30,57 -10,12 -23,23 -37,33 -10,7 -21,13 -32,20z"/>
  <path class="fil5" d="M1213 2035c4,24 8,43 14,58 7,19 16,30 26,35 16,7 31,16 47,24l8 4c6,-5 13,-9 20,-13 9,-5 19,-10 30,-15 14,-6 24,-18 29,-38 4,-15 6,-34 4,-57 -9,-5 -18,-10 -27,-15 -14,-9 -27,-19 -39,-31 -10,-10 -18,-22 -26,-37 -7,17 -15,31 -26,41 -12,12 -25,21 -38,30 -7,5 -15,10 -22,14z"/>
  <path class="fil5" d="M983 2025c9,23 17,42 24,57 10,21 19,34 25,37l9 6c24,15 45,28 62,36 9,-8 20,-15 32,-22 4,-2 8,-5 11,-7 12,-7 19,-22 22,-42 2,-14 1,-31 -1,-50 -17,-9 -32,-19 -46,-29 -16,-12 -31,-25 -44,-39 -13,-14 -21,-32 -28,-53 -2,10 -5,20 -8,29 -12,32 -31,57 -56,76z"/>
  <path class="fil5" d="M760 2059c-2,29 -10,54 -25,75 -12,18 -29,33 -50,44 34,3 65,5 93,4 38,-1 71,-5 96,-14 31,-10 52,-29 65,-57 8,-19 13,-42 13,-69 -26,11 -57,18 -94,20 -29,2 -62,0 -98,-4z"/>
  <path class="fil5" d="M1742 2186c1,24 5,43 13,59 10,20 27,33 50,40 29,10 63,16 102,17 27,1 57,-1 89,-6 -44,-26 -72,-58 -83,-99 -71,8 -128,4 -171,-11z"/>
  <path class="fil5" d="M1536 2170c-2,22 -2,40 1,54 3,16 9,26 19,31 7,3 13,7 21,11 7,3 15,7 26,12 7,0 15,-2 23,-6 10,-4 20,-11 30,-20 17,-15 30,-31 38,-51 4,-10 7,-22 9,-34 -40,-28 -60,-73 -59,-133l-3 -2c-2,20 -6,37 -11,52 -10,28 -26,48 -47,62 -7,4 -16,10 -29,16 -5,3 -11,6 -18,8z"/>
  <path class="fil5" d="M1331 2169c0,19 1,35 5,48 4,16 12,27 22,34 3,2 6,4 9,6 12,8 25,16 41,23 11,-2 20,-4 29,-8 9,-4 17,-10 24,-16 14,-13 23,-30 28,-49 3,-12 4,-24 3,-38 -2,-1 -5,-3 -7,-4 -9,-5 -18,-10 -28,-16 -16,-10 -27,-27 -33,-52 -3,-14 -5,-32 -4,-51l-1 1 -2 -1c0,21 -1,38 -5,53 -7,27 -22,45 -43,54 -10,4 -19,8 -27,13 -3,2 -5,3 -8,5z"/>
  <path class="fil5" d="M1127 2171c2,22 6,40 12,53 7,16 15,26 26,31 10,4 20,9 30,14 8,4 16,9 25,13 18,-10 33,-19 43,-28 13,-11 21,-26 24,-46 2,-11 2,-24 1,-37l0 0c-15,-8 -30,-17 -45,-23 -16,-7 -29,-23 -38,-47 -6,-15 -10,-33 -14,-54l0 0c2,17 2,32 0,46 -4,28 -14,48 -33,59 -4,3 -8,5 -11,7 -7,4 -13,8 -19,12z"/>
  <path class="fil5" d="M924 2168c5,20 10,36 16,49 8,17 16,27 25,33l0 0 9 5c20,12 39,23 58,29 8,-3 15,-7 22,-11 7,-5 13,-10 18,-16 9,-9 13,-23 14,-40 0,-12 -2,-26 -6,-42 -15,-8 -32,-18 -51,-30l-9 -6c-10,-6 -21,-21 -33,-47 -4,-8 -8,-17 -12,-27 -2,21 -7,39 -14,56 -9,19 -21,35 -36,47z"/>
  <path class="fil5" d="M723 2205c-4,19 -11,37 -23,54 -12,17 -28,32 -49,45 28,2 54,4 78,4 33,0 61,-2 83,-7 31,-7 52,-23 64,-47 9,-17 13,-39 12,-65 -2,1 -4,2 -6,2 -28,9 -63,14 -103,15 -17,0 -36,0 -55,-1z"/>
  <path class="fil5" d="M1565 1876c3,31 11,59 24,81 18,30 47,51 86,63 38,11 79,15 123,14 33,-1 68,-6 104,-13 -32,-17 -58,-37 -78,-60 -16,-19 -28,-39 -36,-62 -26,3 -52,4 -78,3 -50,-2 -98,-11 -146,-26z"/>
  <polyline class="fil4" points="802,1887 802,1887 802,1887 802,1887 801,1887 801,1887 801,1887 800,1887 800,1887 800,1887 799,1887 799,1887 799,1887 799,1887 "/>
  <path class="fil5" d="M703 1288c59,-6 108,-15 147,-29 -41,3 -73,-1 -99,-10 -48,-18 -98,-4 -155,26 -21,11 -43,-1 -63,-26 17,37 73,49 169,38z"/>
  <path class="fil0" d="M969 1191c-2,-45 -8,-65 -39,-60 0,-5 0,-10 -1,-15 29,-8 48,-3 53,17 3,11 5,26 4,46 0,15 5,19 19,15 43,-12 78,-13 102,-1 30,15 39,44 19,76 -12,21 -46,27 -90,39 -37,10 -58,39 -65,74 -4,1 -8,3 -11,6 17,-50 40,-83 70,-98 15,-7 38,-12 66,-19 17,-5 25,-24 17,-51 -7,-22 -39,-28 -87,-13 -31,9 -56,8 -58,-17z"/>
  <path class="fil0" d="M764 977c-22,-12 -34,-31 -37,-52 31,28 59,45 82,53 23,8 33,27 23,52 -6,14 -27,17 -54,15 37,-11 50,-27 35,-43 -10,-10 -28,-15 -48,-25z"/>
  <path class="fil0" d="M976 997c-31,0 -52,1 -64,1 -2,-6 -5,-12 -9,-18 26,-3 61,-2 107,-2 29,0 59,-5 86,-17 54,-22 93,-10 119,40 -30,-18 -50,-22 -62,-13 -12,9 -30,25 -50,51 -24,31 -45,46 -64,49 -45,7 -73,-6 -84,-44 31,24 61,33 90,25 23,-6 47,-23 68,-54 15,-21 34,-39 61,-50 -16,-3 -34,-2 -52,3 -32,49 -57,70 -77,70 -8,0 -15,-1 -22,-2l-2 -27 -16 20c-11,-7 -21,-17 -29,-33z"/>
  <path class="fil0" d="M924 944c-23,-12 -29,-21 -18,-26 44,18 101,21 168,0 68,-21 113,-23 137,3 -44,-9 -88,-2 -135,13 -71,24 -123,26 -152,10z"/>
  <path class="fil0" d="M1479 1031c-29,7 -49,15 -58,34 8,3 17,7 27,13 33,-28 66,-43 93,-30 23,11 22,33 7,55 -12,18 -29,36 -56,48 -19,9 -31,19 -35,33 57,-5 85,0 88,16 5,22 -4,43 -36,59 -9,5 -24,2 -43,1 19,28 26,48 25,62 -2,17 -13,27 -40,27 -9,0 -20,-4 -34,-9 10,50 5,70 -15,66 -22,-4 -56,-26 -101,-70 33,53 64,83 94,87 33,4 49,-14 48,-52 62,3 82,-27 60,-88 38,-10 59,-32 65,-64 5,-24 -12,-43 -52,-56 50,-36 68,-73 56,-110 -9,-30 -39,-34 -94,-22z"/>
 </g>
</svg>
